<svg width="773" height="257" viewBox="0 0 773 257" fill="none" xmlns="http://www.w3.org/2000/svg">
<path d="M749 103.076C749 105.382 748.856 107.784 748.568 110.282H692.79C693.175 115.279 694.76 119.122 697.547 121.813C700.429 124.407 703.936 125.704 708.068 125.704C714.217 125.704 718.493 123.11 720.895 117.921H747.126C745.781 123.206 743.331 127.962 739.776 132.19C736.317 136.418 731.945 139.732 726.66 142.135C721.376 144.537 715.466 145.738 708.933 145.738C701.054 145.738 694.04 144.056 687.89 140.693C681.741 137.33 676.936 132.526 673.477 126.281C670.018 120.035 668.289 112.733 668.289 104.373C668.289 96.0139 669.97 88.7114 673.333 82.4659C676.792 76.2204 681.597 71.4162 687.746 68.0532C693.895 64.6903 700.958 63.0088 708.933 63.0088C716.716 63.0088 723.634 64.6422 729.687 67.9091C735.74 71.176 740.448 75.8361 743.811 81.8894C747.27 87.9428 749 95.005 749 103.076ZM723.778 96.5904C723.778 92.3627 722.337 88.9997 719.454 86.5015C716.571 84.0033 712.968 82.7542 708.644 82.7542C704.513 82.7542 701.006 83.9553 698.123 86.3574C695.337 88.7595 693.607 92.1705 692.935 96.5904H723.778Z" fill="black"/>
<path d="M630.568 75.4046C628.743 72.0416 626.1 69.4954 622.641 67.7659C619.278 65.9403 615.291 65.0274 610.679 65.0274C602.704 65.0274 596.314 67.6698 591.51 72.9544C586.705 78.143 584.303 85.1092 584.303 93.8529C584.303 103.173 586.802 110.476 591.798 115.76C596.89 120.949 603.857 123.543 612.696 123.543C618.75 123.543 623.842 122.006 627.974 118.931C632.202 115.856 635.276 111.436 637.198 105.671H605.922V87.5113H659.538V110.427C657.712 116.577 654.589 122.294 650.169 127.579C645.846 132.863 640.321 137.139 633.595 140.406C626.869 143.673 619.278 145.306 610.823 145.306C600.83 145.306 591.894 143.144 584.015 138.821C576.232 134.401 570.131 128.299 565.711 120.516C561.387 112.734 559.225 103.846 559.225 93.8529C559.225 83.8601 561.387 74.9722 565.711 67.1894C570.131 59.3104 576.232 53.209 584.015 48.8852C591.798 44.4653 600.686 42.2554 610.679 42.2554C622.785 42.2554 632.97 45.186 641.234 51.0471C649.593 56.9083 655.118 65.0275 657.808 75.4046H630.568Z" fill="black"/>
<path d="M526.403 77.5655C529.285 73.1456 532.888 69.6865 537.212 67.1883C541.536 64.594 546.34 63.2969 551.625 63.2969V89.3839H544.851C538.701 89.3839 534.089 90.7291 531.015 93.4194C527.94 96.0137 526.403 100.626 526.403 107.256V144.585H501.757V64.1616H526.403V77.5655Z" fill="black"/>
<path d="M446.597 145.738C438.718 145.738 431.607 144.056 425.266 140.693C419.02 137.33 414.072 132.526 410.421 126.281C406.866 120.035 405.088 112.733 405.088 104.373C405.088 96.11 406.914 88.8556 410.565 82.6101C414.216 76.2685 419.213 71.4162 425.554 68.0532C431.896 64.6903 439.006 63.0088 446.885 63.0088C454.764 63.0088 461.874 64.6903 468.216 68.0532C474.557 71.4162 479.554 76.2685 483.205 82.6101C486.856 88.8556 488.682 96.11 488.682 104.373C488.682 112.637 486.808 119.939 483.061 126.281C479.41 132.526 474.365 137.33 467.927 140.693C461.586 144.056 454.476 145.738 446.597 145.738ZM446.597 124.407C451.305 124.407 455.292 122.677 458.559 119.218C461.922 115.759 463.604 110.811 463.604 104.373C463.604 97.9356 461.97 92.9872 458.703 89.5282C455.533 86.0691 451.593 84.3396 446.885 84.3396C442.081 84.3396 438.093 86.0691 434.922 89.5282C431.752 92.8911 430.166 97.8395 430.166 104.373C430.166 110.811 431.704 115.759 434.778 119.218C437.949 122.677 441.889 124.407 446.597 124.407Z" fill="black"/>
<path d="M397.035 43.4072V63.1526H355.815V84.4834H386.658V103.652H355.815V144.584H331.169V43.4072H397.035Z" fill="black"/>
<path d="M313.308 37.9307V144.585H288.663V37.9307H313.308Z" fill="black"/>
<path d="M270.802 37.9307V144.585H246.157V37.9307H270.802Z" fill="black"/>
<path d="M216.045 55.8027C211.721 55.8027 208.166 54.5536 205.38 52.0554C202.689 49.4611 201.344 46.2903 201.344 42.543C201.344 38.6996 202.689 35.5288 205.38 33.0306C208.166 30.4363 211.721 29.1392 216.045 29.1392C220.273 29.1392 223.732 30.4363 226.422 33.0306C229.209 35.5288 230.602 38.6996 230.602 42.543C230.602 46.2903 229.209 49.4611 226.422 52.0554C223.732 54.5536 220.273 55.8027 216.045 55.8027ZM228.296 64.162V144.585H203.65V64.162H228.296Z" fill="black"/>
<path d="M163.703 144.585L139.202 110.859V144.585H114.556V37.9307H139.202V96.8786L163.559 64.1618H193.97L160.533 104.517L194.258 144.585H163.703Z" fill="black"/>
<path d="M62.4924 145.594C55.0939 145.594 48.464 144.393 42.6029 141.99C36.7417 139.588 32.0336 136.033 28.4784 131.325C25.0194 126.617 23.1938 120.948 23.0016 114.318H49.2327C49.6171 118.065 50.9142 120.948 53.1241 122.966C55.3341 124.887 58.2166 125.848 61.7718 125.848C65.423 125.848 68.3055 125.032 70.4194 123.398C72.5333 121.669 73.5902 119.315 73.5902 116.336C73.5902 113.838 72.7254 111.772 70.9959 110.138C69.3625 108.505 67.2966 107.16 64.7984 106.103C62.3963 105.046 58.9373 103.845 54.4213 102.5C47.8875 100.482 42.5548 98.4641 38.4232 96.4463C34.2915 94.4286 30.7364 91.4499 27.7578 87.5105C24.7792 83.571 23.2898 78.4305 23.2898 72.0889C23.2898 62.6726 26.7008 55.3221 33.5229 50.0374C40.3449 44.6567 49.2327 41.9663 60.1864 41.9663C71.3322 41.9663 80.3161 44.6567 87.1381 50.0374C93.9601 55.3221 97.6114 62.7206 98.0918 72.233H71.4283C71.2361 68.9661 70.0351 66.4199 67.8251 64.5943C65.6152 62.6726 62.7807 61.7117 59.3216 61.7117C56.343 61.7117 53.9409 62.5284 52.1153 64.1619C50.2896 65.6992 49.3768 67.9572 49.3768 70.9358C49.3768 74.2027 50.9142 76.749 53.9889 78.5746C57.0636 80.4002 61.8679 82.3699 68.4016 84.4838C74.9354 86.6937 80.22 88.8076 84.2556 90.8254C88.3872 92.8432 91.9424 95.7737 94.921 99.6171C97.8996 103.461 99.3889 108.409 99.3889 114.462C99.3889 120.227 97.8996 125.464 94.921 130.172C92.0384 134.88 87.8107 138.628 82.2378 141.414C76.6649 144.2 70.0831 145.594 62.4924 145.594Z" fill="black"/>
<path d="M555.542 195.592H550.051V216.649H547.024V195.592H543.738V193.041H547.024V191.398C547.024 188.832 547.673 186.944 548.97 185.733C550.296 184.523 552.429 183.917 555.369 183.917V186.512C553.409 186.512 552.025 186.886 551.218 187.636C550.44 188.385 550.051 189.639 550.051 191.398V193.041H555.542V195.592Z" fill="black"/>
<path d="M539.392 184.653V216.649H536.365V184.653H539.392Z" fill="black"/>
<path d="M530.828 203.634C530.828 204.672 530.799 205.464 530.741 206.012H511.154C511.241 207.799 511.673 209.327 512.452 210.595C513.23 211.864 514.253 212.829 515.521 213.492C516.79 214.127 518.173 214.444 519.672 214.444C521.632 214.444 523.275 213.968 524.601 213.017C525.956 212.065 526.85 210.783 527.282 209.169H530.482C529.905 211.475 528.666 213.363 526.763 214.833C524.89 216.274 522.526 216.995 519.672 216.995C517.453 216.995 515.464 216.505 513.705 215.525C511.947 214.516 510.563 213.103 509.555 211.287C508.575 209.442 508.084 207.295 508.084 204.845C508.084 202.395 508.575 200.247 509.555 198.402C510.535 196.557 511.904 195.145 513.662 194.165C515.421 193.185 517.424 192.695 519.672 192.695C521.921 192.695 523.881 193.185 525.553 194.165C527.253 195.145 528.551 196.471 529.444 198.143C530.367 199.786 530.828 201.616 530.828 203.634ZM527.758 203.548C527.787 201.789 527.426 200.29 526.677 199.051C525.956 197.811 524.962 196.875 523.693 196.24C522.425 195.606 521.041 195.289 519.543 195.289C517.294 195.289 515.377 196.01 513.792 197.451C512.207 198.892 511.327 200.924 511.154 203.548H527.758Z" fill="black"/>
<path d="M495.556 216.995C492.846 216.995 490.626 216.375 488.897 215.135C487.196 213.867 486.245 212.152 486.043 209.99H489.156C489.3 211.316 489.92 212.397 491.016 213.233C492.14 214.04 493.639 214.444 495.512 214.444C497.155 214.444 498.438 214.054 499.361 213.276C500.312 212.498 500.787 211.532 500.787 210.379C500.787 209.572 500.528 208.909 500.009 208.39C499.49 207.871 498.827 207.468 498.02 207.18C497.242 206.863 496.175 206.531 494.821 206.185C493.062 205.724 491.635 205.263 490.54 204.801C489.445 204.34 488.508 203.663 487.729 202.769C486.98 201.847 486.605 200.622 486.605 199.094C486.605 197.941 486.951 196.875 487.643 195.894C488.335 194.914 489.315 194.136 490.583 193.56C491.852 192.983 493.293 192.695 494.907 192.695C497.444 192.695 499.49 193.343 501.047 194.641C502.603 195.909 503.439 197.667 503.555 199.916H500.528C500.441 198.532 499.894 197.422 498.885 196.586C497.905 195.721 496.55 195.289 494.821 195.289C493.293 195.289 492.053 195.649 491.102 196.37C490.151 197.091 489.675 197.984 489.675 199.051C489.675 199.973 489.949 200.737 490.497 201.342C491.073 201.919 491.779 202.38 492.615 202.726C493.451 203.043 494.576 203.403 495.988 203.807C497.689 204.268 499.043 204.715 500.052 205.147C501.061 205.58 501.926 206.214 502.647 207.05C503.367 207.886 503.742 208.996 503.771 210.379C503.771 211.648 503.425 212.786 502.733 213.795C502.041 214.775 501.076 215.553 499.836 216.13C498.597 216.706 497.17 216.995 495.556 216.995Z" fill="black"/>
<path d="M474.788 197.235C475.451 195.765 476.46 194.627 477.815 193.82C479.198 193.012 480.885 192.609 482.874 192.609V195.765H482.052C479.861 195.765 478.103 196.356 476.777 197.538C475.451 198.72 474.788 200.694 474.788 203.462V216.649H471.761V193.041H474.788V197.235Z" fill="black"/>
<path d="M464.851 193.042V216.65H461.825V212.499C461.133 213.969 460.066 215.093 458.625 215.871C457.184 216.65 455.57 217.039 453.782 217.039C450.958 217.039 448.652 216.174 446.864 214.444C445.077 212.686 444.184 210.149 444.184 206.834V193.042H447.167V206.489C447.167 209.054 447.801 211.014 449.07 212.369C450.367 213.724 452.125 214.401 454.345 214.401C456.622 214.401 458.438 213.68 459.793 212.239C461.147 210.798 461.825 208.679 461.825 205.883V193.042H464.851Z" fill="black"/>
<path d="M426.992 216.995C424.773 216.995 422.769 216.505 420.982 215.525C419.224 214.516 417.826 213.103 416.788 211.287C415.779 209.442 415.275 207.295 415.275 204.845C415.275 202.395 415.793 200.261 416.831 198.445C417.869 196.601 419.281 195.188 421.068 194.208C422.856 193.199 424.859 192.695 427.079 192.695C429.298 192.695 431.301 193.199 433.089 194.208C434.905 195.188 436.317 196.601 437.326 198.445C438.364 200.261 438.883 202.395 438.883 204.845C438.883 207.266 438.364 209.399 437.326 211.244C436.288 213.089 434.861 214.516 433.045 215.525C431.229 216.505 429.212 216.995 426.992 216.995ZM426.992 214.357C428.549 214.357 429.99 214.011 431.316 213.319C432.642 212.599 433.708 211.532 434.515 210.12C435.351 208.679 435.769 206.92 435.769 204.845C435.769 202.769 435.366 201.025 434.559 199.613C433.752 198.172 432.685 197.105 431.359 196.413C430.033 195.693 428.592 195.332 427.035 195.332C425.479 195.332 424.037 195.693 422.711 196.413C421.386 197.105 420.319 198.172 419.512 199.613C418.734 201.025 418.344 202.769 418.344 204.845C418.344 206.92 418.734 208.679 419.512 210.12C420.319 211.532 421.371 212.599 422.668 213.319C423.994 214.011 425.435 214.357 426.992 214.357Z" fill="black"/>
<path d="M412.554 193.042L398.545 227.762H395.388L399.972 216.52L390.286 193.042H393.616L401.658 213.19L409.441 193.042H412.554Z" fill="black"/>
<path d="M374.378 184.653V216.649H371.351V184.653H374.378Z" fill="black"/>
<path d="M364.497 184.653V216.649H361.47V184.653H364.497Z" fill="black"/>
<path d="M353.103 188.587C352.498 188.587 351.979 188.371 351.547 187.939C351.114 187.506 350.898 186.973 350.898 186.339C350.898 185.705 351.114 185.186 351.547 184.782C351.979 184.35 352.498 184.134 353.103 184.134C353.709 184.134 354.227 184.35 354.66 184.782C355.092 185.186 355.308 185.705 355.308 186.339C355.308 186.973 355.092 187.506 354.66 187.939C354.227 188.371 353.709 188.587 353.103 188.587ZM354.617 193.041V216.649H351.59V193.041H354.617Z" fill="black"/>
<path d="M343.571 216.649L333.842 206.056V216.649H330.815V184.653H333.842V203.591L343.354 193.041H347.592L336.393 204.802L347.678 216.649H343.571Z" fill="black"/>
<path d="M316.903 216.995C314.193 216.995 311.974 216.375 310.244 215.135C308.543 213.867 307.592 212.152 307.39 209.99H310.504C310.648 211.316 311.267 212.397 312.363 213.233C313.487 214.04 314.986 214.444 316.86 214.444C318.503 214.444 319.785 214.054 320.708 213.276C321.659 212.498 322.135 211.532 322.135 210.379C322.135 209.572 321.875 208.909 321.356 208.39C320.837 207.871 320.174 207.468 319.367 207.18C318.589 206.863 317.523 206.531 316.168 206.185C314.409 205.724 312.982 205.263 311.887 204.801C310.792 204.34 309.855 203.663 309.077 202.769C308.327 201.847 307.952 200.622 307.952 199.094C307.952 197.941 308.298 196.875 308.99 195.894C309.682 194.914 310.662 194.136 311.93 193.56C313.199 192.983 314.64 192.695 316.254 192.695C318.791 192.695 320.837 193.343 322.394 194.641C323.951 195.909 324.787 197.667 324.902 199.916H321.875C321.789 198.532 321.241 197.422 320.232 196.586C319.252 195.721 317.897 195.289 316.168 195.289C314.64 195.289 313.4 195.649 312.449 196.37C311.498 197.091 311.022 197.984 311.022 199.051C311.022 199.973 311.296 200.737 311.844 201.342C312.42 201.919 313.127 202.38 313.963 202.726C314.798 203.043 315.923 203.403 317.335 203.807C319.036 204.268 320.391 204.715 321.4 205.147C322.408 205.58 323.273 206.214 323.994 207.05C324.714 207.886 325.089 208.996 325.118 210.379C325.118 211.648 324.772 212.786 324.08 213.795C323.388 214.775 322.423 215.553 321.183 216.13C319.944 216.706 318.517 216.995 316.903 216.995Z" fill="black"/>
<path d="M282.58 198.229C283.33 196.644 284.511 195.332 286.126 194.295C287.769 193.228 289.714 192.695 291.963 192.695C294.096 192.695 296.013 193.199 297.713 194.208C299.443 195.188 300.783 196.601 301.735 198.445C302.715 200.261 303.205 202.38 303.205 204.801C303.205 207.223 302.715 209.356 301.735 211.201C300.783 213.046 299.443 214.472 297.713 215.481C296.013 216.49 294.096 216.995 291.963 216.995C289.743 216.995 287.812 216.476 286.169 215.438C284.526 214.372 283.33 213.046 282.58 211.46V227.804H279.597V193.041H282.58V198.229ZM300.135 204.801C300.135 202.841 299.746 201.155 298.967 199.743C298.218 198.301 297.18 197.206 295.854 196.457C294.528 195.707 293.029 195.332 291.357 195.332C289.743 195.332 288.259 195.721 286.904 196.5C285.578 197.278 284.526 198.388 283.748 199.829C282.969 201.27 282.58 202.942 282.58 204.845C282.58 206.747 282.969 208.419 283.748 209.86C284.526 211.302 285.578 212.411 286.904 213.19C288.259 213.968 289.743 214.357 291.357 214.357C293.029 214.357 294.528 213.982 295.854 213.233C297.18 212.455 298.218 211.345 298.967 209.904C299.746 208.433 300.135 206.733 300.135 204.801Z" fill="black"/>
<path d="M253.908 186.425V205.45C253.908 208.447 254.614 210.667 256.026 212.108C257.468 213.55 259.428 214.27 261.907 214.27C264.386 214.27 266.317 213.564 267.701 212.151C269.113 210.71 269.819 208.476 269.819 205.45V186.425H272.846V205.406C272.846 209.24 271.823 212.123 269.776 214.054C267.758 215.985 265.121 216.951 261.863 216.951C258.606 216.951 255.954 215.985 253.908 214.054C251.89 212.123 250.881 209.24 250.881 205.406V186.425H253.908Z" fill="black"/>
</svg>
